<mxfile host="app.diagrams.net" modified="2024-06-04T00:53:22.750Z" agent="Mozilla/5.0 (Macintosh; Intel Mac OS X 10_15_7) AppleWebKit/537.36 (KHTML, like Gecko) Chrome/124.0.0.0 Safari/537.36" version="24.4.13" etag="G9GCf39wmmt6Wb_geJCX" type="github">
  <diagram name="第 1 页" id="I0i1PA1vy1tKrl0rkm65">
    <mxGraphModel>
      <root>
        <mxCell id="0" />
        <mxCell id="1" parent="0" />
      </root>
    </mxGraphModel>
  </diagram>
</mxfile>
